<?xml version="1.0" encoding="UTF-8"?>
<!-- Generator: Adobe Illustrator 16.0.0, SVG Export Plug-In . SVG Version: 6.00 Build 0)  -->
<!DOCTYPE svg PUBLIC "-//W3C//DTD SVG 1.1//EN" "http://www.w3.org/Graphics/SVG/1.1/DTD/svg11.dtd">
<svg version="1.1" id="Layer_1" xmlns="http://www.w3.org/2000/svg" xmlns:xlink="http://www.w3.org/1999/xlink" x="0px" y="0px" width="88px" height="88px" viewBox="0 0 88 88" enable-background="new 0 0 88 88" xml:space="preserve">
<path fill="#008786" d="M66.205,21.825c-0.131-0.009-0.262-0.013-0.395-0.013c-0.008,0-0.018,0-0.025,0  c-1.484,0-8.662,0.22-13.457,4.28c-2.557,1.844-5.588,5.025-8.309,8.18c-2.677-3.103-5.74-6.328-8.301-8.179  c-4.793-4.062-11.973-4.281-13.458-4.281c-0.139,0-0.264,0.004-0.395,0.012C9.787,22.002,0.016,31.884,0.016,44.005  c0,12.231,9.952,22.183,22.184,22.183v-0.152l0.037,0.133c0.008,0,0.017,0,0.024,0c1.485,0,8.665-0.221,13.458-4.281  c2.562-1.852,5.624-5.078,8.301-8.18c2.721,3.154,5.754,6.334,8.309,8.18c4.316,3.654,10.568,4.197,12.854,4.271  c0.203,0.02,0.41,0.029,0.619,0.029c12.23,0,22.184-9.951,22.184-22.183C87.984,31.909,78.252,22.042,66.205,21.825z M28.393,51.926  c-0.227,0.158-0.443,0.33-0.648,0.514c-0.842,0.764-3.607,1.35-5.518,1.367h0.03l-0.058,0.062v-0.043  c-5.416,0-9.822-4.406-9.822-9.821s4.406-9.822,9.822-9.822c0.094,0,0.188-0.001,0.279-0.006c1.626,0.044,4.396,0.575,5.266,1.362  c0.205,0.186,0.422,0.356,0.648,0.513c1.249,0.858,3.9,3.409,7.663,7.938C32.293,48.52,29.642,51.068,28.393,51.926z M66.195,53.818  c-0.131-0.008-0.264-0.012-0.395-0.012c-0.008-0.002-0.016,0-0.023,0c-1.582,0-4.566-0.545-5.477-1.367  c-0.203-0.184-0.42-0.355-0.646-0.514c-1.363-0.936-4.107-3.662-7.662-7.936c3.555-4.275,6.299-7.002,7.662-7.938  c0.227-0.156,0.443-0.327,0.646-0.513c0.807-0.729,3.373-1.299,5.268-1.36c0.076,0.003,0.154,0.004,0.232,0.004  c5.416,0,9.822,4.407,9.822,9.822C75.623,49.287,71.428,53.611,66.195,53.818z"/>
<path fill="#484848" d="M44,34.248c-2.672-3.094-5.727-6.309-8.281-8.154c-4.793-4.062-11.973-4.281-13.458-4.281  c-0.139,0-0.264,0.004-0.395,0.012C9.787,22.002,0.016,31.883,0.016,44.005c0,12.231,9.952,22.183,22.184,22.183v-0.152l0.037,0.133  c0.008,0,0.017,0,0.024,0c1.485,0,8.665-0.221,13.458-4.281c2.556-1.848,5.609-5.062,8.281-8.156V34.248z M28.393,51.926  c-0.227,0.158-0.443,0.33-0.648,0.514c-0.842,0.764-3.607,1.35-5.518,1.367h0.03l-0.058,0.062v-0.043  c-5.416,0-9.822-4.406-9.822-9.821s4.406-9.823,9.822-9.823c0.094,0,0.188,0,0.279-0.006c1.626,0.045,4.396,0.576,5.266,1.363  c0.205,0.186,0.422,0.355,0.648,0.512c1.249,0.859,3.9,3.41,7.663,7.94C32.293,48.52,29.642,51.068,28.393,51.926z"/>
<title>Artboard</title>
<desc>Created with Sketch.</desc>
<g>
	<g>
		<path fill="#008786" d="M76.269,40.589c-0.474-2.008-1.557-3.822-2.966-5.32c-1.427-1.502-3.253-2.559-5.21-3.166    c-3.957-1.154-8.494-0.146-11.471,2.729l-0.289,0.256l-0.346,0.344l-0.699,0.699l-1.4,1.4l-2.802,2.803l-1.427,1.424l-7.988-7.99    l-2.802-2.799l-1.399-1.4l-0.7-0.701l-0.364-0.359l-0.503-0.463l-1.018-0.912c-0.359-0.283-0.73-0.551-1.099-0.822    c-0.722-0.565-1.537-0.993-2.325-1.462c-1.629-0.831-3.337-1.54-5.127-1.926c-3.558-0.876-7.319-0.716-10.837,0.271    c-3.5,1.053-6.771,2.994-9.282,5.628c-2.512,2.63-4.424,5.92-5.285,9.479c-0.485,1.768-0.645,3.602-0.665,5.424    c0.041,0.915,0.054,1.829,0.211,2.731c0.071,0.451,0.117,0.906,0.222,1.352l0.323,1.334c0.942,3.537,2.898,6.797,5.446,9.391    c1.615,1.582,3.476,2.934,5.506,3.961c2.025,1.045,4.238,1.689,6.479,2.018c2.242,0.312,4.538,0.307,6.771-0.113    c2.232-0.412,4.399-1.178,6.402-2.26c0.492-0.283,0.981-0.574,1.468-0.871c0.466-0.324,0.922-0.662,1.378-1    c0.468-0.328,0.865-0.73,1.292-1.102l0.625-0.576l0.454-0.447l3.478-3.479l9.341-9.34l2.779,2.777l3.478,3.477    c0.142,0.141,0.297,0.303,0.427,0.422l0.358,0.32c0.246,0.207,0.457,0.453,0.728,0.623L58.2,53.51l0.824,0.484    c1.122,0.602,2.334,1.031,3.59,1.268c1.256,0.244,2.553,0.23,3.814,0.059c1.26-0.188,2.509-0.533,3.637-1.129    c1.135-0.58,2.172-1.332,3.097-2.225c1.432-1.482,2.532-3.283,3.057-5.273l0.185-0.75c0.064-0.25,0.076-0.508,0.119-0.762    c0.104-0.506,0.088-1.026,0.125-1.538C76.621,42.619,76.556,41.58,76.269,40.589z M38.544,52.889l-3.478,3.477l-0.447,0.443    l-0.553,0.504c-0.377,0.328-0.726,0.689-1.14,0.973c-0.402,0.297-0.805,0.598-1.213,0.883l-1.294,0.768    c-1.765,0.953-3.674,1.627-5.642,1.992c-1.968,0.373-3.995,0.371-5.973,0.098c-1.975-0.289-3.927-0.854-5.71-1.777    c-1.788-0.906-3.426-2.096-4.854-3.492C5.996,54.463,4.271,51.6,3.44,48.479l-0.285-1.176c-0.094-0.391-0.13-0.793-0.194-1.191    c-0.143-0.795-0.147-1.604-0.188-2.407c0.021-1.607,0.155-3.229,0.589-4.785c0.756-3.14,2.443-6.031,4.657-8.355    c2.219-2.328,5.098-4.029,8.182-4.963c3.102-0.865,6.422-1.016,9.557-0.237c1.581,0.337,3.082,0.968,4.521,1.696    c0.689,0.416,1.412,0.787,2.046,1.289c0.324,0.238,0.652,0.476,0.97,0.723l0.897,0.807l0.445,0.408l0.358,0.355l0.7,0.699l1.4,1.4    l2.801,2.801l7.99,7.99l-0.008,0.008l0.008,0.006L38.544,52.889z M74.037,44.838c-0.034,0.199-0.04,0.406-0.091,0.604    c-0.054,0.195-0.102,0.393-0.148,0.59c-0.03,0.203-0.119,0.385-0.185,0.576c-0.073,0.189-0.114,0.391-0.204,0.572    c-0.186,0.359-0.317,0.744-0.551,1.076c-0.374,0.721-0.929,1.324-1.47,1.938c-0.737,0.703-1.555,1.297-2.447,1.756    c-0.886,0.473-1.872,0.736-2.866,0.887c-0.996,0.135-2.026,0.152-3.017-0.043c-0.992-0.191-1.946-0.531-2.831-1    c-0.213-0.133-0.429-0.26-0.648-0.381c-0.201-0.15-0.401-0.305-0.607-0.449c-0.217-0.129-0.379-0.334-0.575-0.494l-0.286-0.252    c-0.115-0.105-0.281-0.277-0.42-0.414l-3.478-3.477l-2.779-2.78l0.008-0.006l-0.008-0.008l1.426-1.426l2.802-2.801l1.401-1.402    l0.698-0.699l0.341-0.338l0.231-0.199c2.344-2.275,5.926-3.059,9.057-2.156l0.57,0.203l0.289,0.094    c0.095,0.036,0.182,0.088,0.273,0.131c0.182,0.086,0.365,0.17,0.552,0.25l0.521,0.309c0.366,0.178,0.661,0.467,1,0.688    c0.164,0.117,0.303,0.273,0.458,0.406c0.146,0.143,0.321,0.254,0.444,0.42c1.112,1.193,1.972,2.609,2.34,4.197    c0.233,0.779,0.272,1.603,0.303,2.414C74.102,44.027,74.126,44.439,74.037,44.838z"/>
		<path fill="#008786" d="M79.267,39.826c-0.602-2.523-1.962-4.83-3.739-6.707c-1.788-1.879-4.095-3.229-6.567-3.986    c-4.976-1.464-10.693-0.176-14.448,3.436c-1.89,1.814-3.741,3.722-5.614,5.576l-4.057,4.057L39.039,36.4l-2.801-2.801    l-1.399-1.401l-0.701-0.7l-0.356-0.352l-0.417-0.381l-0.839-0.756c-0.298-0.231-0.604-0.451-0.907-0.675    c-0.591-0.472-1.27-0.813-1.913-1.206c-1.345-0.678-2.747-1.271-4.226-1.584c-2.932-0.729-6.038-0.586-8.938,0.222    c-2.882,0.872-5.572,2.46-7.649,4.64c-2.069,2.177-3.649,4.875-4.355,7.813c-0.406,1.455-0.527,2.97-0.551,4.474    c0.04,0.752,0.041,1.508,0.177,2.25c0.061,0.373,0.092,0.75,0.181,1.115l0.268,1.1c0.775,2.918,2.388,5.594,4.488,7.74    c1.338,1.307,2.869,2.418,4.54,3.266c1.665,0.865,3.492,1.389,5.339,1.662c1.849,0.256,3.745,0.26,5.586-0.092    c1.841-0.342,3.626-0.973,5.274-1.863l1.209-0.715c0.383-0.27,0.758-0.551,1.135-0.828c0.39-0.262,0.713-0.602,1.065-0.908    l0.519-0.475l0.443-0.438l3.478-3.475l7.154-7.156l5.409,5.41l3.479,3.479c1.16,1.137,2.371,2.197,3.811,2.941    c1.415,0.762,2.946,1.305,4.527,1.6c1.581,0.303,3.211,0.297,4.801,0.078c1.585-0.236,3.155-0.68,4.583-1.428    c1.433-0.729,2.747-1.68,3.901-2.801c1.802-1.854,3.187-4.141,3.853-6.646l0.23-0.945c0.076-0.314,0.102-0.639,0.153-0.959    c0.12-0.637,0.114-1.29,0.154-1.934C79.716,42.379,79.621,41.076,79.267,39.826z M36.355,50.701l-3.477,3.477    c-1.173,1.152-2.456,2.275-3.944,3.043c-1.471,0.791-3.062,1.355-4.703,1.662c-1.644,0.314-3.338,0.307-4.988,0.08    c-1.647-0.244-3.278-0.707-4.763-1.482c-1.489-0.756-2.854-1.748-4.052-2.912c-1.873-1.924-3.312-4.301-4.004-6.904l-0.238-0.982    c-0.08-0.326-0.105-0.664-0.161-0.996c-0.124-0.66-0.119-1.338-0.158-2.008c0.024-1.342,0.126-2.697,0.493-3.994    c0.626-2.624,2.038-5.023,3.885-6.971c1.856-1.949,4.254-3.357,6.824-4.141c2.587-0.717,5.362-0.852,7.979-0.196    c1.32,0.274,2.568,0.812,3.769,1.411c0.572,0.354,1.18,0.653,1.705,1.078l0.811,0.601l0.749,0.677    c1.919,1.84,3.749,3.727,5.628,5.588l5.802,5.803l-0.008,0.008l0.008,0.006L36.355,50.701z M77.724,45.348    c-0.047,0.279-0.064,0.564-0.133,0.84l-0.202,0.826c-0.581,2.193-1.791,4.182-3.367,5.811c-1.016,0.98-2.163,1.812-3.413,2.451    c-1.245,0.654-2.619,1.039-4.009,1.246c-1.388,0.189-2.816,0.203-4.199-0.068c-1.384-0.26-2.721-0.732-3.959-1.395l-0.907-0.535    l-0.85-0.623c-0.296-0.193-0.533-0.459-0.801-0.688l-0.394-0.354c-0.138-0.127-0.287-0.285-0.43-0.426l-3.478-3.477l-5.411-5.411    l0.006-0.006l-0.006-0.008l4.058-4.059l2.8-2.801l1.4-1.399l0.7-0.702l0.348-0.342l0.317-0.285    c3.281-3.164,8.281-4.281,12.638-3.006c2.158,0.666,4.175,1.838,5.742,3.488c1.555,1.646,2.745,3.652,3.268,5.863    c0.313,1.092,0.392,2.234,0.417,3.365C77.821,44.22,77.834,44.789,77.724,45.348z"/>
		<path fill="#008786" d="M82.266,39.064c-0.732-3.043-2.368-5.842-4.513-8.094c-2.15-2.258-4.938-3.903-7.925-4.807    c-3.005-0.838-6.222-0.986-9.258-0.23c-1.531,0.326-2.986,0.939-4.378,1.643c-0.668,0.404-1.369,0.762-1.983,1.249    c-0.313,0.233-0.632,0.461-0.938,0.7l-0.869,0.781l-0.432,0.395l-0.357,0.354l-0.7,0.701l-1.4,1.4l-2.802,2.801l-6.688,6.689    l-3.614-3.615l-2.801-2.799l-1.4-1.402l-0.7-0.699l-0.35-0.346l-0.33-0.299c-3.44-3.314-8.681-4.486-13.242-3.148    c-2.264,0.695-4.376,1.928-6.017,3.654c-1.629,1.723-2.877,3.83-3.426,6.145c-0.327,1.145-0.41,2.34-0.437,3.523    c0.039,0.592,0.028,1.19,0.142,1.774c0.05,0.293,0.068,0.592,0.141,0.879l0.211,0.865c0.609,2.299,1.878,4.387,3.53,6.092    c1.061,1.027,2.264,1.898,3.574,2.566c1.307,0.686,2.746,1.09,4.201,1.305c1.455,0.201,2.952,0.211,4.4-0.068    c1.448-0.273,2.851-0.768,4.146-1.465l0.951-0.562l0.892-0.65c0.31-0.203,0.559-0.48,0.84-0.719l0.41-0.369l0.434-0.43    l3.478-3.477l4.967-4.967l8.04,8.042l3.478,3.479l0.446,0.439l0.534,0.488c0.367,0.318,0.702,0.668,1.105,0.941    c0.391,0.289,0.779,0.578,1.176,0.859l1.252,0.74c1.709,0.922,3.559,1.576,5.465,1.93c1.908,0.363,3.87,0.359,5.785,0.094    c1.913-0.279,3.806-0.826,5.532-1.721c1.732-0.879,3.318-2.029,4.703-3.381c2.175-2.223,3.844-4.996,4.649-8.02l0.277-1.139    c0.091-0.381,0.125-0.771,0.188-1.156c0.139-0.77,0.141-1.551,0.181-2.333C82.814,42.142,82.686,40.572,82.266,39.064z     M34.168,48.514l-3.477,3.477c-0.144,0.141-0.296,0.301-0.43,0.426l-0.375,0.334c-0.256,0.217-0.48,0.475-0.764,0.654    l-0.809,0.594l-0.864,0.508c-1.178,0.631-2.45,1.082-3.768,1.33c-1.316,0.258-2.678,0.244-4.001,0.062    c-1.321-0.195-2.631-0.561-3.815-1.184c-1.19-0.607-2.281-1.398-3.25-2.334c-1.501-1.553-2.653-3.445-3.206-5.535l-0.192-0.783    c-0.067-0.262-0.081-0.535-0.127-0.801C8.984,44.73,9,44.187,8.961,43.65c0.026-1.077,0.097-2.166,0.397-3.203    c0.497-2.106,1.633-4.014,3.111-5.584c1.495-1.572,3.412-2.686,5.467-3.322c4.149-1.211,8.91-0.15,12.034,2.863l0.303,0.271    l0.347,0.343l0.699,0.699l1.4,1.4l2.802,2.803l3.613,3.613l-0.008,0.008l0.008,0.006L34.168,48.514z M81.411,45.857    c-0.061,0.359-0.09,0.723-0.174,1.076l-0.258,1.061c-0.749,2.812-2.304,5.389-4.328,7.463c-1.292,1.258-2.766,2.328-4.376,3.146    c-1.607,0.834-3.367,1.34-5.147,1.6c-1.783,0.248-3.612,0.252-5.388-0.086c-1.772-0.33-3.493-0.939-5.084-1.795l-1.166-0.689    l-1.094-0.799c-0.374-0.254-0.686-0.584-1.026-0.877l-0.502-0.455l-0.44-0.438l-3.478-3.477l-8.041-8.042l0.007-0.006    l-0.007-0.008l6.688-6.689l2.802-2.801l1.398-1.4l0.702-0.699l0.354-0.352l0.404-0.367l0.808-0.729    c0.286-0.224,0.583-0.436,0.875-0.651c0.568-0.456,1.226-0.782,1.845-1.163c1.296-0.651,2.646-1.227,4.071-1.527    c2.828-0.703,5.824-0.564,8.619,0.214c2.779,0.843,5.371,2.37,7.375,4.474c1.996,2.101,3.52,4.699,4.199,7.531    c0.393,1.404,0.508,2.865,0.531,4.314C81.541,44.412,81.541,45.143,81.411,45.857z"/>
		<path fill="#484848" d="M85.263,38.3c-0.861-3.56-2.772-6.85-5.285-9.479c-2.512-2.634-5.78-4.575-9.281-5.628    c-3.517-0.986-7.279-1.146-10.837-0.271c-1.79,0.386-3.498,1.095-5.129,1.926c-0.785,0.469-1.602,0.896-2.323,1.462    c-0.367,0.271-0.738,0.539-1.099,0.822l-1.018,0.912l-0.503,0.463l-0.364,0.359l-0.7,0.701l-1.399,1.4l-2.801,2.799l-9.32,9.321    l-1.427-1.427l-2.801-2.8l-1.4-1.399l-0.7-0.702l-0.341-0.338l-0.246-0.214c-2.502-2.426-6.323-3.264-9.659-2.301l-0.611,0.217    l-0.307,0.102c-0.101,0.039-0.195,0.094-0.293,0.137l-0.589,0.269c-0.188,0.104-0.368,0.224-0.556,0.331    c-0.389,0.189-0.707,0.494-1.067,0.732c-0.176,0.127-0.321,0.293-0.487,0.433c-0.155,0.151-0.343,0.274-0.475,0.449    c-1.186,1.269-2.102,2.784-2.495,4.477c-0.247,0.832-0.293,1.71-0.322,2.573c0.038,0.434,0.016,0.871,0.107,1.297    c0.038,0.213,0.044,0.434,0.1,0.643l0.155,0.631c0.035,0.213,0.129,0.41,0.196,0.617c0.079,0.201,0.124,0.412,0.222,0.607    c0.195,0.385,0.339,0.793,0.584,1.15c0.403,0.768,0.992,1.414,1.57,2.064c0.783,0.75,1.657,1.383,2.608,1.873    c0.947,0.504,2,0.787,3.061,0.947c1.062,0.145,2.158,0.16,3.216-0.049c1.058-0.201,2.076-0.562,3.02-1.066    c0.229-0.139,0.459-0.273,0.693-0.404l0.647-0.48c0.231-0.139,0.406-0.354,0.614-0.525l0.305-0.268    c0.118-0.113,0.282-0.281,0.422-0.418l3.477-3.479l2.779-2.778l10.672,10.672l3.478,3.479l0.454,0.447l0.626,0.576    c0.426,0.371,0.822,0.773,1.292,1.102c0.456,0.338,0.911,0.676,1.378,1c0.484,0.297,0.975,0.588,1.467,0.871    c2.002,1.082,4.171,1.848,6.401,2.26c2.231,0.42,4.529,0.426,6.771,0.113c2.239-0.328,4.453-0.973,6.479-2.018    c2.03-1.027,3.889-2.379,5.506-3.961c2.547-2.594,4.503-5.854,5.446-9.391l0.323-1.334c0.104-0.445,0.149-0.9,0.221-1.352    c0.157-0.902,0.171-1.816,0.212-2.731C85.908,41.902,85.749,40.068,85.263,38.3z M31.98,46.326l-3.479,3.477    c-0.138,0.137-0.303,0.309-0.419,0.414l-0.286,0.252c-0.195,0.16-0.359,0.365-0.575,0.494c-0.207,0.145-0.405,0.299-0.606,0.449    c-0.221,0.121-0.437,0.248-0.65,0.381c-0.884,0.469-1.838,0.809-2.829,1c-0.992,0.195-2.021,0.178-3.018,0.043    c-0.993-0.15-1.981-0.414-2.866-0.887c-0.892-0.459-1.71-1.053-2.447-1.756c-0.54-0.613-1.096-1.217-1.47-1.938    c-0.233-0.332-0.364-0.717-0.55-1.076c-0.092-0.182-0.132-0.383-0.207-0.572c-0.062-0.191-0.152-0.373-0.184-0.576    c-0.045-0.197-0.094-0.395-0.146-0.59c-0.054-0.197-0.058-0.404-0.095-0.604c-0.087-0.399-0.062-0.811-0.1-1.215    c0.029-0.812,0.067-1.635,0.302-2.414c0.368-1.588,1.227-3.004,2.34-4.197c0.122-0.166,0.299-0.277,0.445-0.42    c0.154-0.133,0.292-0.289,0.455-0.406c0.342-0.221,0.636-0.51,1.002-0.688l0.521-0.309c0.186-0.08,0.369-0.164,0.552-0.25    c0.092-0.043,0.18-0.095,0.274-0.131l0.287-0.094l0.572-0.203c3.13-0.902,6.71-0.119,9.056,2.156l0.231,0.199l0.341,0.338    l0.699,0.699l1.4,1.402l2.801,2.801l1.426,1.426l-0.007,0.008l0.007,0.006L31.98,46.326z M85.097,46.367    c-0.07,0.439-0.113,0.881-0.215,1.314l-0.312,1.293c-0.918,3.434-2.814,6.596-5.287,9.113c-1.567,1.537-3.372,2.846-5.343,3.844    c-1.963,1.014-4.111,1.639-6.286,1.957c-2.176,0.303-4.406,0.299-6.57-0.109c-2.167-0.4-4.27-1.143-6.213-2.191l-1.423-0.846    c-0.452-0.316-0.896-0.645-1.337-0.975c-0.455-0.312-0.841-0.707-1.256-1.066l-0.606-0.557l-0.452-0.447l-3.477-3.479    L35.646,43.546l0.008-0.006l-0.008-0.008l9.32-9.32l2.801-2.801l1.401-1.402l0.699-0.699l0.362-0.358l0.489-0.448l0.987-0.887    c0.35-0.273,0.71-0.533,1.066-0.797c0.699-0.551,1.492-0.963,2.255-1.419c1.581-0.805,3.237-1.494,4.977-1.868    c3.452-0.852,7.103-0.694,10.518,0.262c3.394,1.023,6.567,2.902,9.007,5.463c2.437,2.553,4.292,5.742,5.128,9.197    c0.472,1.717,0.624,3.498,0.646,5.266C85.261,44.605,85.251,45.494,85.097,46.367z"/>
	</g>
</g>
<path fill="#008786" d="M65.801,61.861v-0.02c-0.002,0-0.002,0-0.004,0c-0.363,0-7.025-0.049-10.795-3.363  c-2.41-1.691-5.553-5.082-8.182-8.168l2.387-2.912c3.287,3.898,6.174,6.842,7.996,8.094l0.104,0.07l0.09,0.082  c2.248,2.035,6.828,2.486,8.402,2.488l0.002,0.021c7.801,0,14.148-6.348,14.148-14.149s-6.348-14.148-14.148-14.148l-0.002-0.01  c-1.574,0.002-6.154,0.451-8.402,2.486l-0.09,0.083l-0.104,0.071c-2.191,1.506-5.969,5.44-9.869,10.224l-2.279,2.912  c-2.32,2.965-8.107,10.117-12.011,12.855c-3.768,3.314-10.429,3.363-10.794,3.363c-0.002,0-0.005,0-0.007,0l-0.044-0.037v0.057  c-9.846,0-17.857-8.012-17.857-17.856c0-9.848,8.012-17.857,17.857-17.857v0.036l0.044-0.044c0.002,0,0.005,0,0.007,0  c0.364,0,7.026,0.048,10.794,3.36c2.43,1.702,5.585,5.114,8.184,8.165l-2.391,2.91c-3.303-3.921-6.165-6.832-7.992-8.088  l-0.103-0.071l-0.093-0.083c-2.254-2.041-6.803-2.486-8.386-2.486c-0.005,0-0.009,0-0.014,0l-0.051-0.046v0.056  c-7.802,0-14.148,6.347-14.148,14.148s6.347,14.149,14.148,14.149v0.025l0.051-0.047c1.572-0.002,6.153-0.453,8.399-2.488  l0.093-0.082l0.102-0.07c2.228-1.531,5.994-5.52,10.22-10.801l1.034-1.343c3.898-5.063,9.316-11.335,12.904-13.849  c3.793-3.335,10.514-3.362,10.801-3.36v0.008c9.848,0.002,17.855,8.011,17.855,17.857C83.658,53.85,75.648,61.861,65.801,61.861z"/>
<path fill="#484848" d="M65.803,26.147V26.14c-0.287-0.002-7.008,0.025-10.801,3.36C51.967,31.626,47.627,36.439,44,40.938v6.018  c0.4-0.5,0.758-0.951,1.055-1.332l2.279-2.912c3.9-4.783,7.678-8.718,9.869-10.224l0.104-0.071l0.09-0.083  c2.248-2.035,6.828-2.484,8.402-2.486l0.002,0.01c7.801,0,14.148,6.347,14.148,14.148s-6.348,14.149-14.148,14.149l-0.002-0.021  c-1.574-0.002-6.154-0.453-8.402-2.488l-0.09-0.082l-0.104-0.07c-1.822-1.252-4.709-4.195-7.996-8.094l-2.387,2.912  c2.629,3.086,5.771,6.477,8.182,8.168c3.77,3.314,10.432,3.363,10.795,3.363c0.002,0,0.002,0,0.004,0v0.02  c9.848,0,17.857-8.012,17.857-17.856C83.658,34.158,75.65,26.149,65.803,26.147z"/>
<g>
	<path fill="#484848" d="M65.799,58.133c-1.574-0.002-6.154-0.453-8.402-2.488l-0.09-0.082l-0.104-0.07   c-1.822-1.251-4.709-4.194-7.996-8.094l-2.387,2.912c2.629,3.085,5.771,6.477,8.182,8.168c3.77,3.314,10.432,3.363,10.795,3.363   c0.002,0,0.004,0,0.006,0L65.799,58.133z"/>
	<path fill="#484848" d="M41.228,37.665c-2.599-3.051-5.754-6.463-8.184-8.166c-3.768-3.312-10.43-3.359-10.794-3.359   c-0.002,0-0.005,0-0.007,0l-1.926,1.924l1.933,1.783c0.005,0,0.009,0,0.014,0c1.583,0,6.132,0.445,8.386,2.486l0.093,0.083   l0.103,0.071c1.827,1.256,4.69,4.167,7.992,8.088L41.228,37.665z"/>
</g>
<path fill="#FFFFFF" d="M65.803,26.295v-0.008c-0.287-0.002-7.008,0.025-10.801,3.359c-3.588,2.515-9.006,8.785-12.904,13.85  l-1.034,1.343c-4.226,5.281-7.992,9.27-10.22,10.801l-0.102,0.07l-0.093,0.082c-2.246,2.035-6.827,2.486-8.399,2.488l-0.051,0.047  v-0.025c-7.802,0-14.148-6.348-14.148-14.149s6.347-14.148,14.148-14.148v-3.709c-9.846,0-17.857,8.01-17.857,17.857  c0,9.845,8.012,17.856,17.857,17.856v-0.056l0.044,0.036c0.002,0,0.005,0,0.007,0c0.365,0,7.026-0.049,10.794-3.363  c3.903-2.738,9.69-9.891,12.011-12.855l2.279-2.912c3.9-4.783,7.678-8.718,9.869-10.224l0.104-0.071l0.09-0.083  c2.248-2.035,6.828-2.484,8.402-2.486l0.002,0.01c7.801,0,14.148,6.347,14.148,14.148s-6.348,14.149-14.148,14.149v3.707  c9.848,0,17.857-8.012,17.857-17.856C83.658,34.305,75.649,26.296,65.803,26.295z"/>
<path fill="#008786" d="M42.225,50.979l-2.68,2.68l-3.477,3.479l-0.447,0.443l-0.553,0.504c-0.379,0.326-0.725,0.688-1.141,0.973  c-0.402,0.295-0.805,0.598-1.213,0.883l-1.295,0.768c-1.764,0.953-3.672,1.627-5.641,1.99c-1.969,0.375-3.996,0.373-5.973,0.098  c-1.975-0.289-3.926-0.854-5.709-1.777c-1.789-0.906-3.428-2.094-4.855-3.49c-2.246-2.293-3.971-5.16-4.801-8.279l-0.285-1.174  c-0.094-0.393-0.131-0.795-0.195-1.193c-0.141-0.795-0.145-1.602-0.188-2.406c0.023-1.607,0.158-3.227,0.59-4.783  c0.756-3.141,2.443-6.033,4.656-8.355c2.219-2.33,5.1-4.031,8.182-4.963c3.102-0.865,6.422-1.016,9.559-0.238  c1.578,0.338,3.08,0.969,4.52,1.695c0.689,0.418,1.412,0.789,2.045,1.291c0.326,0.238,0.652,0.475,0.971,0.723l0.898,0.805  l0.443,0.41l0.359,0.354l0.699,0.699l1.402,1.4l2.801,2.801l1.424,1.428l-0.855,0.857l-1.426-1.428l-2.803-2.799L35.84,32.97  l-0.701-0.699l-0.355-0.354l-0.418-0.381l-0.838-0.754c-0.299-0.232-0.605-0.451-0.908-0.676c-0.592-0.471-1.27-0.814-1.912-1.205  c-1.346-0.678-2.748-1.273-4.227-1.584c-2.932-0.73-6.039-0.588-8.939,0.219c-2.881,0.875-5.572,2.461-7.648,4.641  c-2.07,2.178-3.65,4.877-4.355,7.814c-0.406,1.455-0.527,2.971-0.551,4.473c0.039,0.752,0.041,1.508,0.176,2.252  c0.061,0.373,0.094,0.75,0.182,1.115l0.268,1.1c0.775,2.916,2.387,5.592,4.488,7.74c1.338,1.307,2.869,2.416,4.539,3.266  c1.666,0.863,3.494,1.389,5.34,1.66c1.85,0.256,3.746,0.26,5.586-0.092c1.84-0.342,3.625-0.973,5.275-1.861l1.209-0.715  c0.381-0.271,0.758-0.551,1.135-0.828c0.387-0.264,0.711-0.605,1.066-0.91l0.518-0.471l0.441-0.439l3.479-3.477l2.681-2.681  l-1.331-1.331l-2.68,2.68l-3.479,3.479c-1.172,1.152-2.455,2.275-3.943,3.043c-1.471,0.791-3.061,1.354-4.705,1.662  c-1.641,0.312-3.336,0.307-4.986,0.08c-1.646-0.244-3.279-0.709-4.762-1.482c-1.49-0.758-2.855-1.748-4.053-2.912  c-1.873-1.924-3.312-4.303-4.004-6.906l-0.238-0.98c-0.08-0.328-0.105-0.664-0.16-0.996c-0.125-0.664-0.121-1.338-0.16-2.01  c0.025-1.342,0.127-2.695,0.494-3.994c0.627-2.623,2.039-5.021,3.885-6.969c1.855-1.951,4.256-3.359,6.824-4.143  c2.586-0.715,5.361-0.852,7.979-0.195c1.32,0.275,2.568,0.812,3.768,1.412c0.574,0.354,1.182,0.652,1.707,1.076l0.811,0.602  l0.748,0.676c1.92,1.842,3.748,3.727,5.627,5.59l1.426,1.426l-1.301,1.301l-1.426-1.426l-2.799-2.801l-1.402-1.4l-0.699-0.701  l-0.348-0.346l-0.334-0.297c-3.439-3.314-8.678-4.486-13.24-3.15c-2.264,0.697-4.377,1.93-6.018,3.654  c-1.627,1.725-2.875,3.83-3.424,6.145c-0.328,1.145-0.412,2.34-0.438,3.525c0.039,0.592,0.027,1.188,0.141,1.773  c0.051,0.293,0.07,0.592,0.141,0.877l0.213,0.867c0.607,2.297,1.877,4.385,3.529,6.09c1.062,1.027,2.264,1.9,3.574,2.57  c1.307,0.682,2.746,1.086,4.201,1.303c1.455,0.201,2.949,0.211,4.4-0.07c1.449-0.271,2.85-0.768,4.146-1.465l0.951-0.559  l0.893-0.654c0.309-0.201,0.559-0.48,0.838-0.717l0.412-0.371l0.432-0.428l3.479-3.477l2.68-2.682l-0.887-0.887l-2.682,2.68  l-3.477,3.479c-0.143,0.141-0.295,0.299-0.428,0.424l-0.377,0.336c-0.256,0.215-0.479,0.473-0.762,0.654l-0.811,0.592l-0.863,0.51  C27.273,55.909,26,56.36,24.686,56.61c-1.318,0.254-2.68,0.242-4.002,0.061c-1.322-0.197-2.633-0.561-3.816-1.186  c-1.189-0.607-2.281-1.398-3.25-2.332c-1.502-1.555-2.654-3.445-3.207-5.533l-0.191-0.787c-0.068-0.264-0.082-0.535-0.127-0.801  C9.986,45.503,10,44.96,9.963,44.421c0.025-1.076,0.096-2.164,0.396-3.203c0.496-2.105,1.633-4.014,3.113-5.584  c1.492-1.572,3.41-2.686,5.465-3.32c4.148-1.213,8.91-0.152,12.033,2.863l0.303,0.27l0.346,0.344l0.701,0.699l1.4,1.4l2.801,2.801  l1.426,1.426l-1.744,1.744l-1.426-1.426l-2.801-2.801l-1.4-1.4l-0.699-0.701l-0.342-0.338l-0.246-0.213  c-2.504-2.426-6.322-3.266-9.66-2.301l-0.609,0.217l-0.309,0.102c-0.1,0.039-0.193,0.094-0.293,0.137l-0.588,0.27  c-0.188,0.104-0.367,0.223-0.555,0.328c-0.391,0.191-0.707,0.496-1.068,0.732c-0.176,0.129-0.322,0.295-0.488,0.434  c-0.154,0.152-0.34,0.271-0.473,0.449c-1.188,1.268-2.104,2.785-2.496,4.477c-0.248,0.832-0.293,1.711-0.32,2.574  c0.037,0.434,0.014,0.869,0.105,1.297c0.039,0.213,0.043,0.432,0.1,0.643l0.156,0.629c0.033,0.215,0.127,0.412,0.195,0.617  c0.078,0.201,0.125,0.414,0.221,0.607c0.197,0.385,0.34,0.795,0.586,1.15c0.402,0.768,0.99,1.416,1.568,2.066  c0.785,0.75,1.658,1.383,2.609,1.871c0.947,0.504,2,0.789,3.061,0.949c1.062,0.145,2.158,0.16,3.217-0.049  c1.057-0.201,2.076-0.562,3.02-1.066c0.227-0.141,0.459-0.275,0.693-0.406l0.646-0.479c0.23-0.139,0.406-0.355,0.613-0.525  l0.305-0.27c0.119-0.109,0.283-0.279,0.422-0.416l3.477-3.479l2.779-2.779l0.693,0.694l0.444-0.444l-0.691-0.691l0.006-0.008  l-0.006-0.008l1.744-1.742l0.698,0.698l0.888-0.887l-0.699-0.7l1.301-1.301l0.699,0.7l1.33-1.331l-0.699-0.699l0.857-0.857  l0.699,0.699l0.63-0.629v-2.288l-1.425-1.427l-2.801-2.801l-1.402-1.4L37.77,29.64l-0.363-0.359l-0.502-0.465l-1.02-0.912  c-0.359-0.281-0.729-0.549-1.098-0.822c-0.723-0.564-1.539-0.992-2.324-1.461c-1.629-0.832-3.338-1.539-5.129-1.926  c-3.557-0.877-7.318-0.717-10.838,0.271c-3.498,1.053-6.768,2.99-9.281,5.627c-2.51,2.631-4.422,5.92-5.285,9.48  c-0.484,1.766-0.645,3.602-0.666,5.424c0.043,0.912,0.057,1.828,0.213,2.73c0.072,0.449,0.117,0.906,0.221,1.35l0.324,1.334  c0.943,3.539,2.898,6.799,5.447,9.393c1.613,1.582,3.475,2.932,5.504,3.961c2.025,1.043,4.24,1.689,6.48,2.016  c2.242,0.312,4.537,0.311,6.77-0.113c2.232-0.41,4.4-1.178,6.402-2.258c0.492-0.285,0.982-0.574,1.467-0.871  c0.467-0.324,0.922-0.662,1.379-1.002c0.467-0.324,0.865-0.73,1.291-1.102l0.627-0.574l0.453-0.449l3.477-3.477l2.681-2.681  L42.225,50.979z M35.76,44.319l-2.777,2.777l-3.479,3.477c-0.139,0.137-0.305,0.309-0.42,0.416l-0.287,0.252  c-0.195,0.16-0.357,0.365-0.576,0.494c-0.205,0.145-0.404,0.297-0.605,0.449c-0.219,0.121-0.436,0.248-0.648,0.381  c-0.885,0.469-1.84,0.809-2.83,0.998c-0.992,0.197-2.02,0.178-3.018,0.045c-0.992-0.15-1.98-0.414-2.867-0.891  c-0.891-0.457-1.709-1.049-2.447-1.752c-0.541-0.613-1.096-1.217-1.469-1.938c-0.234-0.332-0.365-0.719-0.551-1.076  c-0.092-0.182-0.131-0.383-0.205-0.572c-0.062-0.191-0.154-0.375-0.186-0.576c-0.045-0.199-0.092-0.395-0.145-0.592  c-0.053-0.195-0.057-0.402-0.094-0.602c-0.088-0.398-0.064-0.811-0.1-1.217c0.027-0.809,0.066-1.635,0.301-2.412  c0.367-1.59,1.227-3.004,2.34-4.197c0.123-0.166,0.299-0.277,0.445-0.422c0.154-0.131,0.293-0.287,0.455-0.406  c0.34-0.221,0.637-0.51,1.002-0.686l0.52-0.311c0.186-0.08,0.369-0.162,0.553-0.25c0.092-0.043,0.18-0.092,0.273-0.129l0.289-0.096  l0.572-0.203c3.129-0.9,6.709-0.117,9.055,2.158l0.23,0.199l0.34,0.338l0.701,0.699l1.4,1.4l2.801,2.801l1.426,1.426l-0.006,0.008  L35.76,44.319z"/>
<g>
	<path fill="#484848" d="M53.668,47.714l3.357,3.357c0.136,0.135,0.286,0.291,0.412,0.408l0.346,0.309   c0.236,0.197,0.441,0.438,0.703,0.602l0.743,0.547l0.796,0.469c1.084,0.58,2.254,0.994,3.465,1.223   c1.213,0.236,2.467,0.225,3.685,0.057c1.216-0.18,2.421-0.514,3.511-1.09c1.095-0.559,2.098-1.287,2.99-2.146   c1.381-1.434,2.441-3.17,2.951-5.094l0.177-0.721c0.062-0.242,0.073-0.492,0.116-0.736c0.099-0.488,0.082-0.988,0.119-1.485   c-0.025-0.99-0.088-1.993-0.365-2.947c-0.457-1.939-1.502-3.691-2.864-5.138c-1.376-1.45-3.139-2.471-5.029-3.058   c-3.819-1.113-8.2-0.141-11.074,2.635l-0.278,0.248l-0.334,0.33l-0.676,0.676l-1.352,1.353l-2.705,2.704l-1.377,1.377l1.72,1.719   l0,0l-0.007-0.007l1.377-1.376l2.705-2.704l1.351-1.353l0.677-0.676l0.328-0.325l0.224-0.194c2.264-2.195,5.722-2.951,8.743-2.081   l0.551,0.196l0.278,0.092c0.092,0.034,0.177,0.084,0.265,0.124c0.177,0.085,0.354,0.165,0.533,0.241l0.502,0.301   c0.354,0.17,0.639,0.449,0.967,0.661c0.158,0.115,0.291,0.267,0.441,0.394c0.14,0.139,0.311,0.246,0.43,0.406   c1.073,1.151,1.902,2.518,2.258,4.052c0.227,0.752,0.264,1.547,0.292,2.329c-0.037,0.393-0.014,0.79-0.098,1.174   c-0.035,0.193-0.039,0.393-0.09,0.582c-0.05,0.189-0.098,0.379-0.142,0.57c-0.029,0.195-0.115,0.371-0.178,0.557   c-0.071,0.182-0.11,0.377-0.198,0.551c-0.18,0.348-0.306,0.719-0.531,1.041c-0.361,0.695-0.897,1.277-1.419,1.869   c-0.713,0.68-1.502,1.252-2.362,1.693c-0.855,0.459-1.81,0.715-2.769,0.859c-0.963,0.129-1.955,0.146-2.912-0.045   c-0.957-0.182-1.878-0.51-2.732-0.963c-0.205-0.129-0.414-0.25-0.627-0.367c-0.194-0.146-0.387-0.295-0.585-0.434   c-0.21-0.125-0.367-0.322-0.556-0.479l-0.276-0.24c-0.111-0.105-0.272-0.27-0.405-0.402l-3.357-3.357l-2.27-2.268l-1.713,1.713   L53.668,47.714z"/>
	<path fill="#484848" d="M85.357,38.254c-0.831-3.438-2.678-6.613-5.102-9.152c-2.426-2.545-5.583-4.417-8.961-5.434   c-3.397-0.953-7.029-1.107-10.463-0.262c-1.729,0.373-3.377,1.058-4.951,1.859c-0.759,0.453-1.547,0.866-2.244,1.412   c-0.355,0.262-0.713,0.521-1.061,0.793l-0.982,0.881l-0.486,0.447l-0.351,0.348l-0.676,0.676l-1.353,1.352l-2.704,2.705   l-1.376,1.376l0.428,0.428l1.377-1.377l2.704-2.703l1.352-1.353l0.677-0.676l0.35-0.347l0.472-0.434l0.954-0.854   c0.337-0.264,0.684-0.516,1.029-0.771c0.675-0.53,1.44-0.929,2.176-1.369c1.527-0.776,3.127-1.442,4.805-1.804   c3.333-0.823,6.857-0.671,10.153,0.253c3.278,0.987,6.343,2.803,8.696,5.272c2.353,2.466,4.145,5.547,4.951,8.882   c0.456,1.655,0.604,3.375,0.623,5.083c-0.039,0.854-0.05,1.711-0.197,2.557c-0.067,0.422-0.109,0.85-0.207,1.266l-0.305,1.25   c-0.883,3.314-2.715,6.367-5.102,8.797c-1.514,1.482-3.256,2.748-5.158,3.711c-1.897,0.979-3.972,1.582-6.069,1.891   c-2.101,0.291-4.253,0.289-6.345-0.105c-2.09-0.387-4.121-1.104-5.996-2.117l-1.375-0.816c-0.436-0.303-0.863-0.621-1.291-0.938   c-0.439-0.305-0.811-0.684-1.21-1.033l-0.587-0.537l-0.437-0.432l-3.357-3.357l-2.269-2.268l-0.428,0.428l2.269,2.268l3.356,3.357   l0.438,0.434l0.604,0.555c0.413,0.359,0.796,0.748,1.248,1.062c0.44,0.328,0.882,0.654,1.331,0.967   c0.468,0.287,0.941,0.566,1.416,0.842c1.933,1.045,4.025,1.783,6.18,2.182c2.156,0.406,4.372,0.41,6.538,0.107   c2.162-0.314,4.299-0.938,6.255-1.947c1.96-0.992,3.756-2.295,5.315-3.822c2.459-2.504,4.349-5.652,5.259-9.068l0.312-1.287   c0.101-0.43,0.146-0.869,0.214-1.305c0.151-0.871,0.164-1.754,0.203-2.635C85.981,41.732,85.827,39.96,85.357,38.254z"/>
	<path fill="#484848" d="M49.443,51.938l3.357,3.357l0.429,0.424l0.519,0.473c0.354,0.307,0.678,0.646,1.065,0.91   c0.376,0.277,0.753,0.559,1.136,0.826l1.209,0.717c1.649,0.891,3.436,1.521,5.275,1.861c1.842,0.352,3.736,0.35,5.586,0.092   c1.848-0.27,3.674-0.797,5.34-1.66c1.672-0.848,3.204-1.961,4.54-3.266c2.101-2.146,3.714-4.824,4.49-7.742l0.267-1.098   c0.088-0.367,0.121-0.744,0.182-1.117c0.135-0.742,0.137-1.498,0.176-2.25c-0.021-1.504-0.146-3.019-0.551-4.474   c-0.706-2.938-2.285-5.64-4.355-7.814c-2.076-2.179-4.77-3.769-7.651-4.642c-2.9-0.809-6.006-0.95-8.939-0.221   c-1.477,0.313-2.881,0.906-4.226,1.584c-0.645,0.393-1.322,0.736-1.914,1.207c-0.303,0.225-0.609,0.443-0.906,0.676l-0.839,0.755   l-0.417,0.38l-0.346,0.342l-0.676,0.677l-1.353,1.352l-2.704,2.704l-1.376,1.377l0.856,0.856l1.377-1.377l2.703-2.704l1.353-1.352   l0.677-0.677l0.342-0.339l0.39-0.354l0.78-0.704c0.277-0.215,0.562-0.419,0.846-0.628c0.549-0.44,1.18-0.756,1.779-1.123   c1.251-0.629,2.556-1.184,3.932-1.475c2.729-0.68,5.622-0.545,8.322,0.206c2.682,0.814,5.185,2.288,7.119,4.319   c1.927,2.027,3.396,4.537,4.053,7.271c0.379,1.355,0.491,2.766,0.514,4.166c-0.039,0.7-0.037,1.403-0.164,2.094   c-0.057,0.346-0.086,0.697-0.169,1.039l-0.249,1.023c-0.722,2.715-2.223,5.203-4.178,7.203c-1.246,1.217-2.67,2.25-4.226,3.039   c-1.55,0.805-3.25,1.293-4.97,1.547c-1.721,0.238-3.486,0.242-5.2-0.084c-1.712-0.32-3.373-0.906-4.908-1.734l-1.125-0.666   l-1.056-0.771c-0.363-0.244-0.662-0.562-0.993-0.846l-0.482-0.439l-0.426-0.422L50.3,51.081l-2.269-2.268l-0.856,0.855   L49.443,51.938z"/>
	<path fill="#484848" d="M51.556,49.827l3.357,3.357c1.119,1.098,2.29,2.123,3.679,2.84c1.367,0.736,2.845,1.258,4.371,1.543   c1.526,0.295,3.101,0.285,4.635,0.074c1.531-0.225,3.047-0.656,4.425-1.375c1.384-0.703,2.65-1.623,3.765-2.707   c1.741-1.789,3.078-3.996,3.721-6.416l0.223-0.912c0.074-0.303,0.097-0.615,0.148-0.924c0.117-0.616,0.109-1.244,0.148-1.869   c-0.024-1.246-0.117-2.506-0.459-3.712c-0.582-2.438-1.895-4.664-3.609-6.475c-1.727-1.814-3.953-3.12-6.34-3.85   c-4.805-1.412-10.325-0.172-13.95,3.317c-1.825,1.752-3.612,3.591-5.419,5.383l-1.377,1.376l1.285,1.285l1.375-1.376l2.705-2.704   l1.352-1.353l0.676-0.676l0.336-0.332l0.307-0.274c3.168-3.055,7.995-4.134,12.201-2.902c2.084,0.643,4.028,1.774,5.543,3.367   c1.5,1.59,2.65,3.527,3.155,5.662c0.303,1.053,0.377,2.156,0.402,3.246c-0.037,0.547-0.024,1.098-0.131,1.635   c-0.046,0.27-0.062,0.545-0.128,0.811l-0.195,0.797c-0.562,2.117-1.73,4.039-3.252,5.611c-0.98,0.947-2.087,1.75-3.295,2.365   c-1.202,0.633-2.529,1.004-3.869,1.203c-1.342,0.184-2.721,0.195-4.057-0.064c-1.334-0.25-2.625-0.707-3.82-1.348l-0.876-0.518   l-0.82-0.602c-0.286-0.186-0.515-0.443-0.774-0.662l-0.379-0.342c-0.133-0.123-0.278-0.275-0.416-0.41l-3.356-3.357l-2.269-2.27   l-1.285,1.285L51.556,49.827z"/>
</g>
</svg>