<?xml version="1.0" encoding="utf-8"?>
<!-- Generator: Adobe Illustrator 22.0.1, SVG Export Plug-In . SVG Version: 6.00 Build 0)  -->
<svg version="1.1" id="Layer_1" xmlns="http://www.w3.org/2000/svg" xmlns:xlink="http://www.w3.org/1999/xlink" x="0px" y="0px"
	 viewBox="0 0 100 100" style="enable-background:new 0 0 100 100;" xml:space="preserve">
<style type="text/css">
	.st0{clip-path:url(#SVGID_2_);}
	.st1{clip-path:url(#SVGID_4_);}
	.st2{clip-path:url(#SVGID_6_);enable-background:new    ;}
	.st3{clip-path:url(#SVGID_8_);}
	.st4{clip-path:url(#SVGID_10_);fill:#231F20;}
	.st5{clip-path:url(#SVGID_12_);}
	.st6{clip-path:url(#SVGID_14_);fill:#008787;}
</style>
<g>
	<defs>
		<rect id="SVGID_1_" width="100" height="100"/>
	</defs>
	<clipPath id="SVGID_2_">
		<use xlink:href="#SVGID_1_"  style="overflow:visible;"/>
	</clipPath>
	<g class="st0">
		<defs>
			<path id="SVGID_3_" d="M5.9,52.9v23.6h10.5l34.4,17.6h40.5c1.6,0,2.9-1.3,2.9-2.9c0-1.6-1.3-2.9-2.9-2.9c0,0-29.4,0-29.4,0
				c-2.2,0-4.4-0.9-6.1-2.6L33.8,63.8l4.1-4.1l21.9,21.9c1.1,1.1,3,1.1,4.1,0c1.1-1.1,1.1-3,0-4.1L42.1,55.5
				c-1.7-1.7-3.9-2.6-6.2-2.6H5.9z M0,47.1h35.8c3.9,0,7.6,1.5,10.4,4.3l21.9,21.9c2.5,2.5,3.2,6.1,2.1,9.1h21
				c4.8,0,8.8,3.9,8.8,8.8c0,4.8-3.9,8.8-8.8,8.8H49.3L14.9,82.4H0V47.1z"/>
		</defs>
		<clipPath id="SVGID_4_">
			<use xlink:href="#SVGID_3_"  style="overflow:visible;"/>
		</clipPath>
		<g class="st1">
			<defs>
				<rect id="SVGID_5_" width="100" height="100"/>
			</defs>
			<clipPath id="SVGID_6_">
				<use xlink:href="#SVGID_5_"  style="overflow:visible;"/>
			</clipPath>
			<g class="st2">
				<g>
					<defs>
						<rect id="SVGID_7_" x="-14.3" y="31.4" width="128.6" height="82.9"/>
					</defs>
					<clipPath id="SVGID_8_">
						<use xlink:href="#SVGID_7_"  style="overflow:visible;"/>
					</clipPath>
					<g class="st3">
						<defs>
							<rect id="SVGID_9_" y="45.7" width="100" height="54.3"/>
						</defs>
						<clipPath id="SVGID_10_">
							<use xlink:href="#SVGID_9_"  style="overflow:visible;"/>
						</clipPath>
						<rect x="-14.3" y="32.8" class="st4" width="128.6" height="81.5"/>
					</g>
				</g>
			</g>
		</g>
	</g>
	<g class="st0">
		<defs>
			<path id="SVGID_11_" d="M72.1,60.7h8.3l9.6,9.6h-8.3L72.1,60.7z M84.6,56.6v-8.3l9.6,9.6v8.3L84.6,56.6z M56.7,45.3H65l9.6,9.6
				h-8.3L56.7,45.3z M69.1,41.1v-8.3l9.6,9.6v8.3L69.1,41.1z M41.3,29.9h8.3l9.6,9.6h-8.3L41.3,29.9z M53.7,25.7v-8.3l9.6,9.6v8.3
				L53.7,25.7z M40.4,4.1l7.4,7.4v8.3L28,0l-4.1,4.1L43.7,24h-8.3L28,16.6l-4.1,4.1l55.4,55.4H100V55.4L44.6,0L40.4,4.1z"/>
		</defs>
		<clipPath id="SVGID_12_">
			<use xlink:href="#SVGID_11_"  style="overflow:visible;"/>
		</clipPath>
		<g class="st5">
			<defs>
				<rect id="SVGID_13_" width="100" height="100"/>
			</defs>
			<clipPath id="SVGID_14_">
				<use xlink:href="#SVGID_13_"  style="overflow:visible;"/>
			</clipPath>
			<rect x="9.6" y="-14.3" class="st6" width="104.7" height="104.7"/>
		</g>
	</g>
</g>
</svg>
