<?xml version="1.0" encoding="utf-8"?>
<!-- Generator: Adobe Illustrator 28.0.0, SVG Export Plug-In . SVG Version: 6.00 Build 0)  -->
<svg version="1.1" id="圖層_1" xmlns="http://www.w3.org/2000/svg" xmlns:xlink="http://www.w3.org/1999/xlink" x="0px" y="0px"
	 viewBox="0 0 88 88" style="enable-background:new 0 0 88 88;" xml:space="preserve">
<style type="text/css">
	.st0{fill:#484848;}
	.st1{fill:#008786;}
	.st2{fill:none;stroke:#484848;stroke-width:5;stroke-miterlimit:10;}
</style>
<g id="XMLID_11_">
	<path class="st0" d="M76.3,30.4c-1.8-4.2-4.3-7.9-7.5-11.1c-2.4-2.4-5.2-4.5-8.2-6.1l-1.7,4.7c9.1,5.2,15.2,15,15.2,26.1
		c0,16.5-13.3,29.9-29.7,30.1c-0.5,0.8-0.7,1.8-0.3,2.9c0.4,0.7,0.8,1.4,1.2,2c4.3-0.1,8.5-1.1,12.4-2.7c4.2-1.8,7.9-4.3,11.1-7.5
		c3.2-3.2,5.7-7,7.5-11.1C78.1,53.3,79,48.7,79,44S78.1,34.7,76.3,30.4z"/>
	<path class="st0" d="M43,9c-4.4,0.1-8.6,1-12.6,2.7c-4.2,1.8-7.9,4.3-11.1,7.5c-3.2,3.2-5.7,7-7.5,11.1C9.9,34.7,9,39.3,9,44
		s0.9,9.3,2.8,13.6c1.8,4.2,4.3,7.9,7.5,11.1c2.5,2.5,5.4,4.7,8.6,6.3l1.9-4.6c-9.4-5.1-15.8-15-15.8-26.4c0-15.8,12.3-28.8,27.8-30
		C41.2,12.2,41.8,10.4,43,9z"/>
	<polygon class="st1" points="53.5,26.8 63.1,0.6 32.1,36.2 41.5,37.5 30.3,54.5 37.9,55.7 24.9,87.4 57.2,53 47.1,51.2 62.2,28.2 	
		"/>
</g>
<polyline class="st2" points="53.6,65.5 45.2,76.5 57.6,83 "/>
<polyline class="st2" points="34.5,21.9 43,10.9 30.5,4.4 "/>
</svg>
