<?xml version="1.0" encoding="utf-8"?>
<!-- Generator: Adobe Illustrator 19.0.0, SVG Export Plug-In . SVG Version: 6.00 Build 0)  -->
<svg version="1.1" id="Layer_1" xmlns="http://www.w3.org/2000/svg" xmlns:xlink="http://www.w3.org/1999/xlink" x="0px" y="0px"
	 viewBox="-31 26 37 37" style="enable-background:new -31 26 37 37;" xml:space="preserve">
<style type="text/css">
	.st0{opacity:0.8;}
	.st1{fill:#231F20;}
	.st2{fill:#008880;}
</style>
<title>Page 1</title>
<desc>Created with Sketch.</desc>
<g id="Symbols" class="st0">
	<g id="megamenu-_x2F_-howtobuy-global" transform="translate(-1197.500000, -120.000000)">
		<g id="Page-1" transform="translate(1198.000000, 120.000000)">
			<path id="Fill-1" class="st1" d="M-31,56.5H5v-24h-36V56.5z M-24.5,35.7h23L-13,44.9L-24.5,35.7z M-7.1,44.5l8.5-6.8v13.6
				L-7.1,44.5z M-27.4,37.7l8.5,6.8l-8.5,6.8V37.7z M-9.8,46.7l8.3,6.7h-23l8.3-6.7l3.2,2.5L-9.8,46.7z"/>
			<path id="Fill-2" class="st2" d="M-31,32.5v2.4l18,14.6L5,34.8l0-2.3H-31z M-24.5,35.8h23L-13,45.1L-24.5,35.8z"/>
		</g>
	</g>
</g>
</svg>
