<?xml version="1.0" encoding="utf-8"?>
<!-- Generator: Adobe Illustrator 19.0.0, SVG Export Plug-In . SVG Version: 6.00 Build 0)  -->
<svg version="1.1" id="Layer_1" xmlns="http://www.w3.org/2000/svg" xmlns:xlink="http://www.w3.org/1999/xlink" x="0px" y="0px"
	 viewBox="-31 33 36 36" style="enable-background:new -31 33 36 36;" xml:space="preserve">
<style type="text/css">
	.st0{opacity:0.8;}
	.st1{filter:url(#Adobe_OpacityMaskFilter);}
	.st2{fill:#FFFFFF;}
	.st3{mask:url(#mask-2);fill:#008880;}
	.st4{fill:#008880;}
	.st5{fill:#231F20;}
	.st6{fill:#EB008B;}
</style>
<title>Page 1</title>
<desc>Created with Sketch.</desc>
<g id="Symbols" class="st0">
	<g id="megamenu-_x2F_-howtobuy-global" transform="translate(-659.500000, -114.000000)">
		<g id="Page-1" transform="translate(660.000000, 113.000000)">
			<g id="Group-3" transform="translate(8.000000, 0.073300)">
				<g id="Clip-2">
				</g>
				<defs>
					<filter id="Adobe_OpacityMaskFilter" filterUnits="userSpaceOnUse" x="-30.6" y="34.4" width="6.2" height="8.4">
						<feColorMatrix  type="matrix" values="1 0 0 0 0  0 1 0 0 0  0 0 1 0 0  0 0 0 1 0"/>
					</filter>
				</defs>
				<mask maskUnits="userSpaceOnUse" x="-30.6" y="34.4" width="6.2" height="8.4" id="mask-2">
					<g class="st1">
						<polygon id="path-1" class="st2" points="-24.3,34.4 -30.6,34.4 -30.6,42.8 -24.3,42.8 						"/>
					</g>
				</mask>
				<path id="Fill-1" class="st3" d="M-27.5,38.6c-0.6,0-1-0.5-1-1c0-0.6,0.5-1,1-1c0.6,0,1,0.5,1,1C-26.4,38.1-26.9,38.6-27.5,38.6
					L-27.5,38.6z M-25.3,39.8c0.6-0.6,1-1.4,1-2.3c0-1.7-1.4-3.1-3.1-3.1s-3.1,1.4-3.1,3.1c0,1.7,1.4,3.1,3.1,3.1c0.1,0,0.1,0,0.2,0
					l0.9,2.2c0.6-0.3,1.3-0.6,1.9-0.8L-25.3,39.8z"/>
			</g>
			<path id="Fill-4" class="st4" d="M-27.2,46.7c-0.4,0.4-1.1,0.4-1.5,0c-0.4-0.4-0.4-1.1,0-1.5c0.4-0.4,1.1-0.4,1.5,0
				C-26.7,45.6-26.7,46.3-27.2,46.7L-27.2,46.7z M-24.8,46.1c0.1-0.8-0.2-1.7-0.8-2.3c-1.2-1.3-3.2-1.3-4.4-0.1
				c-1.3,1.2-1.3,3.2-0.1,4.4c1.2,1.3,3.2,1.3,4.4,0.1c0,0,0.1-0.1,0.1-0.1l2.2,1c0.2-0.7,0.5-1.3,0.8-2L-24.8,46.1z"/>
			<path id="Fill-6" class="st4" d="M-27.9,58.9c-0.6,0-1-0.5-1-1c0-0.6,0.5-1,1.1-1c0.6,0,1,0.5,1,1
				C-26.8,58.5-27.3,58.9-27.9,58.9L-27.9,58.9z M-25.6,55.8c-0.6-0.6-1.4-1-2.3-1c-1.7,0-3.1,1.4-3.1,3.1c0,1.7,1.4,3.1,3.1,3.1
				c1.7,0,3.1-1.4,3.1-3.1c0-0.1,0-0.1,0-0.2l2.2-0.9c-0.3-0.6-0.6-1.3-0.8-2L-25.6,55.8z"/>
			<path id="Fill-8" class="st4" d="M0.1,45.2c0.4-0.4,1.1-0.4,1.5,0c0.4,0.4,0.4,1.1,0,1.5c-0.4,0.4-1.1,0.4-1.5,0
				C-0.3,46.3-0.3,45.6,0.1,45.2L0.1,45.2z M-1.4,48c0,0,0.1,0.1,0.1,0.1C0,49.4,2,49.3,3.1,48.1c1.2-1.3,1.1-3.2-0.1-4.4
				c-1.3-1.2-3.2-1.1-4.4,0.1c-0.6,0.7-0.9,1.5-0.8,2.3l-2.1,1c0.3,0.6,0.6,1.3,0.8,2L-1.4,48z"/>
			<path id="Fill-10" class="st4" d="M0.9,58.9c-0.6,0-1-0.5-1-1c0-0.6,0.5-1,1-1c0.6,0,1,0.5,1,1C1.9,58.4,1.5,58.9,0.9,58.9
				 M0.9,54.8c-0.9,0-1.7,0.4-2.3,1l-2.1-0.8c-0.2,0.7-0.5,1.3-0.8,2l2.1,0.8c0,0.1,0,0.1,0,0.2c0,1.7,1.4,3.1,3.1,3.1
				C2.6,61,4,59.6,4,57.9S2.6,54.7,0.9,54.8"/>
			<path id="Fill-12" class="st4" d="M-18.6,67.1c-0.4,0.4-1.1,0.4-1.5,0c-0.4-0.4-0.4-1.1,0-1.5c0.4-0.4,1.1-0.4,1.5,0
				S-18.2,66.7-18.6,67.1L-18.6,67.1z M-19.3,63.3c-0.8,0-1.7,0.3-2.3,0.9c-1.2,1.2-1.2,3.2,0,4.4c1.2,1.2,3.2,1.2,4.4,0
				c1.2-1.2,1.2-3.2,0-4.4c0,0-0.1-0.1-0.1-0.1l0.9-2.2c-0.7-0.2-1.3-0.5-2-0.8L-19.3,63.3z"/>
			<path id="Fill-14" class="st4" d="M-7.4,65.3c0.6,0,1,0.5,1,1c0,0.6-0.5,1-1,1c-0.6,0-1-0.5-1-1C-8.5,65.8-8,65.4-7.4,65.3
				L-7.4,65.3z M-9.6,64.1c-0.6,0.6-1,1.4-1,2.3c0,1.7,1.4,3.1,3.1,3.1c1.7,0,3.1-1.4,3.1-3.1c0-1.7-1.4-3.1-3.1-3.1
				c-0.1,0-0.1,0-0.2,0l-0.9-2.2c-0.6,0.3-1.2,0.6-1.9,0.8L-9.6,64.1z"/>
			<path id="Fill-16" class="st4" d="M-7.5,36.5c0.6,0,1,0.5,1,1c0,0.6-0.5,1-1,1c-0.6,0-1-0.5-1-1C-8.5,37-8,36.5-7.5,36.5
				L-7.5,36.5z M-7.6,40.7c0.1,0,0.1,0,0.2,0c1.7,0,3.1-1.4,3.1-3.1c0-1.7-1.4-3.1-3.1-3.1s-3.1,1.4-3.1,3.1c0,0.9,0.4,1.7,1,2.3
				l-0.9,2.2c0.7,0.2,1.3,0.5,1.9,0.8L-7.6,40.7z"/>
			<path id="Fill-18" class="st5" d="M-5.3,45.6c0.1,0.1,0.2,0.2,0.3,0.4C-5.1,45.8-5.2,45.7-5.3,45.6"/>
			<path id="Fill-20" class="st5" d="M-7.6,43.4c0.2,0.2,0.4,0.3,0.7,0.5C-7.2,43.7-7.4,43.6-7.6,43.4"/>
			<path id="Fill-22" class="st5" d="M-3.2,50.4c0,0,0,0.1,0,0.1C-3.2,50.4-3.2,50.4-3.2,50.4"/>
			<path id="Fill-24" class="st5" d="M-11.7,62.2c-0.1,0-0.3,0-0.4,0.1C-12,62.2-11.9,62.2-11.7,62.2"/>
			<path id="Fill-26" class="st5" d="M-5.9,44.9c-0.2-0.2-0.4-0.4-0.6-0.6C-6.3,44.5-6.1,44.7-5.9,44.9"/>
			<path id="Fill-28" class="st5" d="M-14.5,62.3c0.3,0,0.7,0.1,1,0.1c0.3,0,0.6,0,0.9,0c-0.3,0-0.6,0-0.9,0
				C-13.8,62.4-14.2,62.3-14.5,62.3"/>
			<path id="Fill-30" class="st6" d="M-11.7,62.2c0.4-0.1,0.8-0.2,1.2-0.3l0,0C-10.9,62-11.3,62.1-11.7,62.2"/>
			<path id="Fill-32" class="st6" d="M-7.7,43.3c0,0,0.1,0,0.1,0.1C-7.7,43.4-7.7,43.4-7.7,43.3"/>
			<path id="Fill-34" class="st6" d="M-19.2,60.6C-19.2,60.6-19.2,60.6-19.2,60.6C-19.2,60.6-19.2,60.6-19.2,60.6"/>
			<path id="Fill-36" class="st6" d="M-12.1,62.3c-0.1,0-0.3,0-0.4,0C-12.4,62.3-12.3,62.3-12.1,62.3"/>
			<path id="Fill-38" class="st6" d="M-14.5,62.3C-14.5,62.3-14.5,62.3-14.5,62.3C-14.5,62.3-14.5,62.3-14.5,62.3"/>
			<path id="Fill-40" class="st6" d="M-3.2,50.4c-0.1-0.5-0.2-1-0.3-1.4l0,0C-3.4,49.4-3.3,49.9-3.2,50.4"/>
			<path id="Fill-42" class="st6" d="M-4.3,47.1C-4.5,46.7-4.8,46.3-5,46C-4.8,46.3-4.5,46.7-4.3,47.1z"/>
			<path id="Fill-44" class="st6" d="M-7,43.9c0.2,0.1,0.3,0.2,0.4,0.4C-6.7,44.2-6.8,44-7,43.9"/>
			<path id="Fill-46" class="st6" d="M-5.9,44.9c0.2,0.2,0.4,0.5,0.6,0.7C-5.5,45.3-5.7,45.1-5.9,44.9"/>
			<path id="Fill-48" class="st5" d="M-9.3,59.2c0-0.1,0.1-0.1,0.1-0.2c0.8-1.7,1.3-3.8,1.5-6.1h2.6C-5.5,55.6-7.1,57.9-9.3,59.2
				L-9.3,59.2z M-5.2,50.9h-2.6c-0.1-2.3-0.6-4.4-1.5-6.1c0-0.1-0.1-0.1-0.1-0.2C-7.1,46-5.5,48.3-5.2,50.9L-5.2,50.9z M-12.5,50.9
				V44c0.5,0.4,1,1,1.4,1.8c0.7,1.4,1.1,3.2,1.2,5.1H-12.5z M-11.1,58.1c-0.4,0.8-0.9,1.4-1.4,1.8V53h2.6
				C-10,54.9-10.4,56.7-11.1,58.1L-11.1,58.1z M-14.5,50.9h-2.6c0.1-1.9,0.5-3.7,1.2-5.1c0.4-0.8,0.9-1.4,1.4-1.8V50.9z M-14.5,59.9
				c-0.5-0.4-1-1-1.4-1.8c-0.7-1.4-1.1-3.2-1.2-5.1h2.6V59.9z M-17.7,44.9c-0.8,1.7-1.3,3.8-1.5,6.1h-2.6c0.3-2.7,1.9-4.9,4.1-6.2
				C-17.7,44.8-17.7,44.8-17.7,44.9L-17.7,44.9z M-21.8,53h2.6c0.1,2.3,0.6,4.4,1.5,6.1c0,0.1,0.1,0.1,0.1,0.2
				C-19.9,57.9-21.4,55.6-21.8,53L-21.8,53z M-3.5,54.9c0.3-1,0.4-1.9,0.4-2.9c0-0.5,0-1-0.1-1.5c0,0,0-0.1,0-0.1
				c-0.1-0.5-0.2-1-0.3-1.4l0,0c-0.2-0.7-0.5-1.3-0.8-1.9h0C-4.5,46.7-4.8,46.3-5,46c-0.1-0.1-0.2-0.2-0.3-0.4
				c-0.2-0.3-0.4-0.5-0.6-0.7c-0.2-0.2-0.4-0.4-0.6-0.6C-6.7,44.2-6.8,44-7,43.9c-0.2-0.2-0.4-0.3-0.7-0.5c0,0-0.1,0-0.1-0.1
				c-1.6-1.1-3.6-1.7-5.7-1.7c-5.7,0-10.4,4.6-10.4,10.4c0,3.6,1.8,6.7,4.6,8.6c0,0,0,0,0,0c1.4,0.9,3,1.5,4.7,1.7c0,0,0,0,0,0
				c0.3,0,0.7,0.1,1,0.1c0.3,0,0.6,0,0.9,0c0.1,0,0.3,0,0.4,0c0.1,0,0.3,0,0.4-0.1c0.4-0.1,0.8-0.1,1.2-0.3l0.1,0
				c0.7-0.2,1.3-0.5,1.9-0.8l0.1-0.1c1.8-1,3.2-2.3,4.1-4.1l0-0.1c0.3-0.6,0.6-1.2,0.8-1.9L-3.5,54.9z"/>
		</g>
	</g>
</g>
</svg>
