<?xml version="1.0" standalone="no"?>
<!DOCTYPE svg PUBLIC "-//W3C//DTD SVG 20010904//EN"
 "http://www.w3.org/TR/2001/REC-SVG-20010904/DTD/svg10.dtd">
<svg version="1.0" xmlns="http://www.w3.org/2000/svg"
 width="1080.000000pt" height="1080.000000pt" viewBox="0 0 1080.000000 1080.000000"
 preserveAspectRatio="xMidYMid meet">
<metadata>
Created by potrace 1.14, written by Peter Selinger 2001-2017
</metadata>
<g transform="translate(0.000000,1080.000000) scale(0.100000,-0.100000)"
fill="#000000" stroke="none">
<path d="M1020 7692 c-29 -2 -53 -11 -67 -24 l-23 -21 0 -2212 0 -2212 23 -21
23 -22 796 0 c768 0 797 1 819 19 l24 19 1 1479 c1 813 2 1484 3 1491 0 6 5
12 10 12 8 0 231 -301 350 -471 14 -20 100 -140 191 -265 91 -125 172 -238
180 -250 8 -12 60 -84 115 -160 55 -76 157 -217 227 -313 129 -179 186 -258
281 -388 28 -40 70 -98 92 -129 22 -32 45 -62 50 -68 6 -7 15 -19 20 -28 12
-20 236 -330 528 -732 73 -100 143 -186 161 -197 29 -18 58 -19 561 -19 486 0
533 1 563 18 21 11 76 78 162 197 72 99 138 191 147 204 10 13 57 78 105 145
48 67 93 129 100 138 7 9 20 26 28 38 8 12 100 139 204 283 104 144 205 285
224 312 20 28 81 113 137 190 175 241 980 1358 1005 1395 13 19 27 37 30 40 3
3 16 20 29 38 17 25 26 31 35 22 8 -8 11 -412 11 -1496 l0 -1486 24 -19 c22
-18 51 -19 822 -19 l798 0 21 22 20 22 0 2212 0 2213 -22 21 c-12 11 -33 20
-47 21 -14 0 -448 0 -963 1 -890 0 -940 -1 -975 -19 -36 -18 -103 -109 -575
-782 -40 -57 -93 -133 -118 -167 -25 -35 -65 -93 -90 -129 -25 -37 -56 -81
-70 -100 -14 -18 -52 -72 -85 -119 -33 -48 -77 -110 -97 -139 -21 -29 -51 -70
-66 -92 -37 -51 -542 -769 -562 -798 -8 -12 -38 -54 -67 -94 -29 -40 -53 -76
-53 -82 0 -5 -3 -11 -8 -13 -4 -1 -88 -118 -187 -258 -98 -140 -232 -330 -297
-422 -65 -91 -120 -173 -124 -181 -3 -8 -17 -20 -31 -26 -23 -11 -28 -9 -60
26 -26 30 -269 368 -375 523 -27 40 -383 541 -416 585 -16 22 -242 342 -503
710 -260 369 -477 675 -482 680 -4 6 -89 125 -188 265 -430 610 -422 598 -461
616 -33 15 -121 17 -950 18 -502 0 -933 0 -958 -2z"/>
</g>
</svg>
