<?xml version="1.0" encoding="utf-8"?>
<!-- Generator: Adobe Illustrator 22.0.1, SVG Export Plug-In . SVG Version: 6.00 Build 0)  -->
<svg version="1.1" id="Layer_1" xmlns="http://www.w3.org/2000/svg" xmlns:xlink="http://www.w3.org/1999/xlink" x="0px" y="0px"
	 viewBox="0 0 100 100" style="enable-background:new 0 0 100 100;" xml:space="preserve">
<style type="text/css">
	.st0{opacity:0.8;}
	.st1{filter:url(#Adobe_OpacityMaskFilter);}
	.st2{fill:#FFFFFF;}
	.st3{mask:url(#_x2D_bull_x27_seye-b_1_);fill:#231F20;}
	.st4{fill:#008787;}
	.st5{fill:#231F20;}
</style>
<g class="st0">
	<defs>
		<filter id="Adobe_OpacityMaskFilter" filterUnits="userSpaceOnUse" x="0" y="0.2" width="99.8" height="99.8">
			<feColorMatrix  type="matrix" values="1 0 0 0 0  0 1 0 0 0  0 0 1 0 0  0 0 0 1 0"/>
		</filter>
	</defs>
	<mask maskUnits="userSpaceOnUse" x="0" y="0.2" width="99.8" height="99.8" id="_x2D_bull_x27_seye-b_1_">
		<g class="st1">
			<polygon id="_x2D_bull_x27_seye-a_1_" class="st2" points="0,100 99.8,100 99.8,0.2 0,0.2 			"/>
		</g>
	</mask>
	<path class="st3" d="M81.1,34.4l18.7-18.7l-11.6-3.9L84.4,0.2L65.6,18.9l2.8,8.4l-4.5,4.5c-6.8-5.8-15.6-9.3-25.2-9.3
		C17.4,22.6,0,39.9,0,61.3S17.4,100,38.7,100c21.3,0,38.7-17.4,38.7-38.7c0-9.6-3.5-18.4-9.3-25.2l4.5-4.5L81.1,34.4z M81.8,11.2
		l1.8,5.3l5.3,1.8l-9.3,9.3l-5.3-1.8l-1.8-5.3L81.8,11.2z M71.5,61.3C71.5,79.4,56.8,94,38.7,94C20.6,94,6,79.4,6,61.3
		s14.7-32.8,32.8-32.8c8,0,15.3,2.9,20.9,7.6l-8.5,8.5c-3.5-2.6-7.8-4.2-12.5-4.2c-11.5,0-20.8,9.3-20.8,20.8
		c0,11.5,9.4,20.8,20.8,20.8s20.8-9.3,20.8-20.8c0-4.7-1.5-9-4.2-12.5l8.5-8.5C68.6,46,71.5,53.3,71.5,61.3z M53.6,61.3
		c0,8.2-6.7,14.9-14.9,14.9c-8.2,0-14.9-6.7-14.9-14.9s6.7-14.9,14.9-14.9c3,0,5.8,0.9,8.2,2.5l-6.7,6.7c-0.5-0.1-1-0.2-1.5-0.2
		c-3.3,0-6,2.7-6,6s2.7,6,6,6s6-2.7,6-6c0-0.5-0.1-1.1-0.2-1.5l6.7-6.7C52.7,55.4,53.6,58.3,53.6,61.3z"/>
	<path class="st4" d="M38.7,46.8c-8,0-14.6,6.5-14.6,14.6c0,8,6.5,14.6,14.6,14.6s14.6-6.5,14.6-14.6C53.2,53.3,46.7,46.8,38.7,46.8
		 M38.7,82.5C27,82.5,17.5,73,17.5,61.3c0-11.7,9.5-21.1,21.1-21.1s21.1,9.5,21.1,21.1C59.8,73,50.3,82.5,38.7,82.5"/>
	<path class="st5" d="M74.2,31.5l-4.6-4.7L40.2,56.2c-0.4-0.1-0.8-0.1-1.2-0.1c-3.3,0-6,2.7-6,6s2.7,6,6,6c3.3,0,6-2.7,6-6
		c0-0.4,0-0.8-0.1-1.2L74.2,31.5z"/>
</g>
</svg>
